HIERARCHY
ROOT Hips
{
	OFFSET 0.00000 0.00000 0.00000
	CHANNELS 6 Xposition Yposition Zposition Zrotation Yrotation Xrotation 
	JOINT LHipJoint
	{
		OFFSET 0 0 0
		CHANNELS 3 Zrotation Yrotation Xrotation
		JOINT LeftHip
		{
			OFFSET 1.84395 -1.68683 0.74144
			CHANNELS 3 Zrotation Yrotation Xrotation
			JOINT LeftKnee
			{
				OFFSET 2.27037 -6.23779 0.00000
				CHANNELS 3 Zrotation Yrotation Xrotation
				JOINT LeftAnkle
				{
					OFFSET 2.56918 -7.05877 0.00000
					CHANNELS 3 Zrotation Yrotation Xrotation
					JOINT LeftToe
					{
						OFFSET 0.22276 -0.61202 1.71784
						CHANNELS 3 Zrotation Yrotation Xrotation
						End Site
						{
							OFFSET 0.00000 -0.00000 0.91613
						}
					}
				}
			}
		}
	}
	JOINT RHipJoint
	{
		OFFSET 0 0 0
		CHANNELS 3 Zrotation Yrotation Xrotation
		JOINT RightHip
		{
			OFFSET -1.76833 -1.68684 0.74144
			CHANNELS 3 Zrotation Yrotation Xrotation
			JOINT RightKnee
			{
				OFFSET -2.49360 -6.85110 0.00000
				CHANNELS 3 Zrotation Yrotation Xrotation
				JOINT RightAnkle
				{
					OFFSET -2.55538 -7.02085 0.00000
					CHANNELS 3 Zrotation Yrotation Xrotation
					JOINT RightToe
					{
						OFFSET -0.21516 -0.59115 1.68050
						CHANNELS 3 Zrotation Yrotation Xrotation
						End Site
						{
							OFFSET -0.00000 -0.00000 0.89604
						}
					}
				}
			}
		}
	}
	JOINT lowerback
	{
		OFFSET 0 0 0
		CHANNELS 3 Zrotation Yrotation Xrotation
		JOINT Chest
		{
			OFFSET 0.06382 1.72312 -0.19613
			CHANNELS 3 Zrotation Yrotation Xrotation
			JOINT Chest2
			{
				OFFSET -0.00055 1.73507 0.23859
				CHANNELS 3 Zrotation Yrotation Xrotation
				JOINT lowerneck
				{
					OFFSET 0 0 0
					CHANNELS 3 Zrotation Yrotation Xrotation
					JOINT Neck
					{
						OFFSET 0.03638 1.65562 0.09633
						CHANNELS 3 Zrotation Yrotation Xrotation
						JOINT Head
						{
							OFFSET 0.06388 1.62807 -0.32386
							CHANNELS 3 Zrotation Yrotation Xrotation
							End Site
							{
								OFFSET 0.00995 1.67644 -0.12021
							}
						}
					}
				}
				JOINT LeftCollar
				{
					OFFSET 0 0 0
					CHANNELS 3 Zrotation Yrotation Xrotation
					JOINT LeftShoulder
					{
						OFFSET 3.09648 1.42991 0.28122
CHANNELS 3 Zrotation Xrotation Yrotation
						JOINT LeftElbow
						{
OFFSET 0 -5.118780 -0.000000
CHANNELS 3 Zrotation Xrotation Yrotation
							JOINT LeftWrist
							{
OFFSET 0 -3.599710 0.000000
CHANNELS 3 Zrotation Xrotation Yrotation
								JOINT lhand
								{
									OFFSET 0 0 0
CHANNELS 3 Zrotation Xrotation Yrotation
									JOINT LFingers
									{
OFFSET 0 -0.628770 0.000000
CHANNELS 3 Zrotation Xrotation Yrotation
										End Site
										{
OFFSET 0 -0.506930 0.000000
										}
									}
								}
								JOINT LThumb
								{
OFFSET 0 0.000000 0.000000
CHANNELS 3 Zrotation Xrotation Yrotation
									End Site
									{
OFFSET 0 -0.514670 0.514670
									}
								}
							}
						}
					}
				}
				JOINT RightCollar
				{
					OFFSET 0 0 0
					CHANNELS 3 Zrotation Yrotation Xrotation
					JOINT RightShoulder
					{
						OFFSET -3.33565 1.14597 0.05047
CHANNELS 3 Zrotation Xrotation Yrotation
						JOINT RightElbow
						{
OFFSET 0 -5.490200 0.000000
CHANNELS 3 Zrotation Xrotation Yrotation
							JOINT RightWrist
							{
OFFSET 0 -3.206590 -0.000000
CHANNELS 3 Zrotation Xrotation Yrotation
								JOINT rhand
								{
									OFFSET 0 0 0
CHANNELS 3 Zrotation Xrotation Yrotation
									JOINT RFingers
									{
OFFSET 0 -0.691880 0.000000
CHANNELS 3 Zrotation Xrotation Yrotation
										End Site
										{
OFFSET 0 -0.557810 0.000000
										}
									}
								}
								JOINT RThumb
								{
OFFSET 0 0.000000 0.000000
CHANNELS 3 Zrotation Xrotation Yrotation
									End Site
									{
OFFSET 0 -0.566330 0.566330
									}
								}
							}
						}
					}
				}
			}
		}
	}
}
MOTION
Frames: 11
Frame Time: 0.008333333333333333
0.917800 17.420700 9.149900 -8.879800 0.706100 10.824200 0.000000 0.000000 0.000000 -21.044000 -43.981700 27.504700 0.065500 -1.650800 -4.541600 -5.801200 44.315400 -44.450700 0.307800 3.567100 9.861800 0.000000 0.000000 0.000000 27.512900 25.127700 6.456800 -0.006800 -0.534000 1.467200 0.868300 -19.034800 -17.798000 -0.449100 4.299600 -11.921200 5.777800 0.535100 -3.790500 2.365700 0.960800 -10.165700 -0.751300 0.134200 -8.565300 -14.391000 -13.229800 -0.477600 14.371500 -19.946400 16.199300 5.185800 -9.678500 7.979200 0.000000 0.000000 0.000000 -3.944500 5.959900 19.711000 6.501100 -11.095200 0.632100 18.763300 52.870000 13.652300 0.000000 0.000000 0.000000 -7.125000 0.000000 0.000000 -5.912100 15.643600 -4.121200 0.000000 0.000000 0.000000 1.707000 7.093900 5.029400 -10.934100 -18.187100 -1.755300 1.189300 22.582500 39.698700 0.000000 0.000000 0.000000 7.125000 0.000000 -0.000000 45.626500 63.840000 -23.139900
0.919188 17.422942 9.149012 -8.725712 0.663316 10.819709 0.000000 0.000000 0.000000 -21.408531 -44.160145 27.717923 0.063367 -1.624023 -4.467742 -5.594088 44.204757 -44.982875 0.363607 3.873038 10.719741 0.000000 0.000000 0.000000 27.282731 25.057002 6.380721 -0.007533 -0.559439 1.537336 0.626529 -18.338864 -19.634448 -0.077458 1.705372 -4.694287 5.627153 0.550591 -3.722473 2.300747 0.980183 -10.156873 -0.737985 0.152050 -8.591924 -14.011352 -13.219733 -0.788601 13.917682 -19.875370 16.562354 4.970297 -9.628048 8.052908 0.000000 0.000000 0.000000 -3.911818 5.842280 20.071601 6.469324 -11.042663 0.626021 18.759758 53.309119 13.528886 0.000000 0.000000 0.000000 -7.125000 0.000000 0.000000 -5.911393 15.772812 -4.104157 0.000000 0.000000 0.000000 1.738798 7.139341 4.757152 -10.951176 -18.213364 -1.760622 2.949161 23.798752 38.149138 0.000000 0.000000 0.000000 7.125000 0.000000 0.000000 45.155110 62.267902 -21.209809
0.919255 17.425010 9.147400 -8.603328 0.583718 10.822765 0.000000 0.000000 0.000000 -21.572033 -44.188342 27.728115 0.062253 -1.610264 -4.429888 -5.521844 44.155643 -45.140185 0.383492 3.976354 11.010278 0.000000 0.000000 0.000000 27.114843 25.105675 6.343747 -0.008489 -0.593320 1.630369 0.573854 -18.149338 -19.928906 -0.002942 0.332288 -0.913108 5.484662 0.568439 -3.651044 2.255368 1.004888 -10.163329 -0.708384 0.172259 -8.638049 -13.668393 -13.196376 -1.009285 13.467386 -19.787068 16.871023 4.770776 -9.577893 8.095234 0.000000 0.000000 0.000000 -3.889440 5.804782 20.121013 6.470153 -11.043956 0.626151 18.806877 53.499743 13.402484 0.000000 0.000000 0.000000 -7.125000 0.000000 0.000000 -5.876000 15.900262 -4.062828 0.000000 0.000000 0.000000 1.743336 7.177944 4.519100 -10.929573 -18.180205 -1.753935 4.736273 25.194596 36.465978 0.000000 0.000000 0.000000 7.125000 0.000000 0.000000 44.708860 60.600070 -19.182669
0.910232 17.435960 9.149985 -7.951096 0.360105 11.150373 0.000000 0.000000 0.000000 -22.159761 -44.647261 27.446906 0.057478 -1.546555 -4.254195 -5.313829 44.128505 -45.855034 0.442692 4.267797 11.831473 0.000000 0.000000 0.000000 26.197286 25.539664 6.021141 -0.008069 -0.578867 1.590683 0.624209 -18.448374 -19.883830 0.000000 -0.020054 0.055101 4.649078 0.735024 -3.979408 1.941315 1.178154 -10.262915 -0.579740 0.310562 -8.542330 -12.971184 -13.303552 -1.112159 12.925363 -19.886744 17.085829 4.475371 -9.610189 8.066292 0.000000 0.000000 0.000000 -3.634768 5.851472 18.261196 6.568815 -11.207374 0.645286 18.407895 53.167777 11.652648 0.000000 0.000000 0.000000 -7.125000 0.000000 0.000000 -6.122798 17.758492 -3.983895 0.000000 0.000000 0.000000 1.858211 6.968859 3.443498 -10.685041 -17.803694 -1.678471 6.617111 25.804443 34.249156 0.000000 0.000000 0.000000 7.125000 0.000000 0.000000 43.935601 58.525572 -16.540902
0.904452 17.443622 9.155926 -7.507851 0.228288 11.433673 0.000000 0.000000 0.000000 -22.508319 -44.983899 27.222738 0.056252 -1.530014 -4.208442 -5.236702 44.193574 -46.290405 0.473513 4.413197 12.242122 0.000000 0.000000 0.000000 25.547512 25.867442 5.793177 -0.007378 -0.554649 1.524120 0.645209 -18.607505 -19.934857 -0.001195 -0.224112 0.615834 4.121601 0.860574 -4.313459 1.683171 1.306295 -10.341653 -0.559665 0.405282 -8.426075 -12.695550 -13.412931 -1.022306 12.927042 -20.056918 17.000336 4.421300 -9.680860 8.017070 0.000000 0.000000 0.000000 -3.381425 5.900552 16.790277 6.649337 -11.340698 0.660940 18.032243 52.856312 10.323704 0.000000 0.000000 0.000000 -7.125000 0.000000 0.000000 -6.375681 19.171171 -3.952801 0.000000 0.000000 0.000000 2.003055 6.860101 3.062271 -10.493628 -17.507899 -1.620253 6.479109 25.699284 33.860439 0.000000 0.000000 0.000000 7.125000 0.000000 0.000000 43.390526 58.266894 -16.001083
0.905540 17.443777 9.158565 -7.559491 0.205513 11.459715 0.000000 0.000000 0.000000 -22.404333 -44.943347 27.173323 0.057109 -1.542473 -4.242941 -5.276379 44.230957 -46.233351 0.468371 4.389466 12.174966 0.000000 0.000000 0.000000 25.618263 25.978685 5.834926 -0.007300 -0.550680 1.513227 0.645060 -18.637511 -19.996332 -0.002054 -0.293012 0.805115 4.176307 0.867340 -4.367170 1.701309 1.312627 -10.318495 -0.570429 0.406146 -8.368758 -12.670814 -13.417304 -1.121076 12.942219 -20.059598 17.012076 4.414825 -9.674396 8.037780 0.000000 0.000000 0.000000 -3.372067 5.818845 16.935766 6.625528 -11.301249 0.656272 18.043386 52.889304 10.476899 0.000000 0.000000 0.000000 -7.125000 0.000000 0.000000 -6.368084 19.010939 -3.970788 0.000000 0.000000 0.000000 1.985367 6.816423 3.055380 -10.490865 -17.503714 -1.619463 6.522662 25.645216 33.583272 0.000000 0.000000 0.000000 7.125000 0.000000 0.000000 43.141515 58.049254 -15.650228
0.907123 17.445023 9.171892 -7.887721 0.389395 11.534211 0.000000 0.000000 0.000000 -21.878827 -44.863610 27.020599 0.059353 -1.571850 -4.323895 -5.343251 44.185646 -45.882315 0.451333 4.309725 11.949699 0.000000 0.000000 0.000000 26.029530 25.863987 5.855440 -0.006307 -0.513367 1.410658 0.654069 -18.675686 -19.960128 -0.001574 -0.253192 0.695661 4.550035 0.835917 -4.676367 1.796075 1.257290 -10.280719 -0.672511 0.358593 -8.150153 -12.660470 -13.410886 -1.223019 12.944614 -20.048370 17.058878 4.407547 -9.662075 8.068862 0.000000 0.000000 0.000000 -3.361640 5.747550 17.178816 6.592301 -11.246311 0.649765 18.123389 53.063239 10.517945 0.000000 0.000000 0.000000 -7.125000 0.000000 0.000000 -6.311572 18.962720 -3.941996 0.000000 0.000000 0.000000 1.959438 6.796014 3.175832 -10.616320 -17.697661 -1.657417 7.071913 24.721114 34.112282 0.000000 0.000000 0.000000 7.125000 0.000000 0.000000 44.199103 58.320464 -16.443772
0.908792 17.446516 9.187095 -8.343689 0.655914 11.701178 0.000000 0.000000 0.000000 -21.276607 -45.030700 26.952790 0.061116 -1.594650 -4.386692 -5.377691 44.230510 -45.861774 0.437428 4.243751 11.763438 0.000000 0.000000 0.000000 26.542851 25.695036 5.744028 -0.005436 -0.474555 1.303932 0.668395 -18.724260 -19.876826 -0.000284 -0.094414 0.259324 5.077207 0.806894 -5.122797 1.918173 1.196406 -10.272860 -0.829611 0.299089 -7.887549 -12.659587 -13.398203 -1.270429 12.958184 -20.032267 17.084695 4.410274 -9.650494 8.084847 0.000000 0.000000 0.000000 -3.337271 5.731003 17.206468 6.583255 -11.231362 0.648056 18.092737 53.179112 10.353008 0.000000 0.000000 0.000000 -7.125000 0.000000 0.000000 -6.332824 19.136674 -3.930793 0.000000 0.000000 0.000000 1.942390 6.797785 3.223413 -10.773051 -17.939520 -1.705384 7.828820 23.521574 34.931883 0.000000 0.000000 0.000000 7.125000 0.000000 0.000000 45.773081 58.750895 -17.688834
0.909760 17.447474 9.189204 -8.333574 0.642199 11.727504 0.000000 0.000000 0.000000 -21.185818 -44.945164 26.824621 0.061843 -1.604934 -4.415029 -5.389154 44.193390 -45.730911 0.422299 4.170903 11.558001 0.000000 0.000000 0.000000 26.514828 25.697769 5.703797 -0.005587 -0.483591 1.328822 0.660993 -18.700890 -19.922988 -0.000504 -0.139547 0.383400 5.066970 0.809119 -5.192723 1.917208 1.194351 -10.273764 -0.824048 0.299613 -7.848382 -12.678115 -13.385251 -1.255979 13.015937 -20.023963 17.066346 4.433980 -9.645034 8.083324 0.000000 0.000000 0.000000 -3.316645 5.773509 17.073840 6.598523 -11.256662 0.651013 18.176121 53.111202 10.253924 0.000000 0.000000 0.000000 -7.125000 0.000000 0.000000 -6.273548 19.234163 -3.879882 0.000000 0.000000 0.000000 1.923347 6.781342 3.067331 -10.740639 -17.889637 -1.695393 7.791552 23.613826 35.176282 0.000000 0.000000 0.000000 7.125000 0.000000 0.000000 46.010502 58.936827 -18.018756
0.910792 17.447700 9.189600 -8.320867 0.633037 11.710145 0.000000 0.000000 0.000000 -21.294806 -45.001626 26.916562 0.060912 -1.593047 -4.382403 -5.435835 44.285537 -45.777503 0.416300 4.141700 11.475699 0.000000 0.000000 0.000000 26.503988 25.694488 5.716657 -0.005700 -0.487792 1.340477 0.657481 -18.684309 -19.933759 -0.001098 -0.215784 0.592905 5.048593 0.793078 -5.172291 1.925017 1.174707 -10.274895 -0.805538 0.291198 -7.862558 -12.566305 -13.401617 -1.307582 12.924776 -20.025704 17.034673 4.385501 -9.643525 8.060151 0.000000 0.000000 0.000000 -3.303209 5.793875 17.192769 6.590191 -11.242852 0.649418 18.175494 53.137693 10.419683 0.000000 0.000000 0.000000 -7.125000 0.000000 0.000000 -6.274387 19.061465 -3.904633 0.000000 0.000000 0.000000 1.891757 6.770656 2.971865 -10.707396 -17.838403 -1.685161 7.785255 23.718328 35.183005 0.000000 0.000000 0.000000 7.125000 0.000000 0.000000 46.012279 58.943138 -18.026870
0.911563 17.447146 9.188820 -8.344674 0.646932 11.691255 0.000000 0.000000 0.000000 -21.313217 -45.019498 26.968030 0.060817 -1.591367 -4.377596 -5.475581 44.341323 -45.763009 0.398271 4.051693 11.222282 0.000000 0.000000 0.000000 26.541085 25.691248 5.736284 -0.005700 -0.487788 1.340348 0.668219 -18.713347 -19.857195 -0.000137 -0.054194 0.148855 5.072067 0.783380 -5.129789 1.931622 1.165785 -10.287182 -0.811800 0.284322 -7.901456 -12.706011 -13.395363 -1.271946 13.155048 -20.051408 16.966643 4.478363 -9.651905 8.075140 0.000000 0.000000 0.000000 -3.297392 5.792490 17.470601 6.572260 -11.213191 0.645906 18.093424 53.463258 10.372409 0.000000 0.000000 0.000000 -7.125000 0.000000 0.000000 -6.332421 19.116335 -3.933397 0.000000 0.000000 0.000000 1.883331 6.777363 2.890010 -10.702153 -17.830293 -1.683597 7.891906 23.786404 34.609536 0.000000 0.000000 0.000000 7.125000 0.000000 0.000000 45.476554 58.502030 -17.259266
